<?xml version="1.0" encoding="UTF-8"?>
<svg width="107px" height="24px" viewBox="0 0 107 24" version="1.1" xmlns="http://www.w3.org/2000/svg" xmlns:xlink="http://www.w3.org/1999/xlink">
    <title>LOGO</title>
    <desc>Created with showgold.</desc>
    <defs></defs>
    <g stroke="none" stroke-width="1" fill="none" fill-rule="evenodd">
        <g transform="translate(-24.000000, -18.000000)" fill="#FFFFFF">
            <g transform="translate(24.000000, 18.000000)">
                <g>
                    <g transform="translate(32.481105, 2.040120)">
                        <polygon id="Fill-1" points="0 3.1735549 0.814073839 4.86165165 3.2364399 3.67596465 3.41513903 5.98704948 0.0215100811 6.42917006 0.259775595 8.29813432 3.55412725 7.87611013 3.73282638 10.2876769 0.476531028 11.5537495 1.17147211 13.3021354 3.89167006 12.2387014 3.95289106 12.9805932 1.09370489 15.3921599 2.3032333 16.8391 5.51981774 14.1260874 5.83750509 13.3239065 5.69851687 11.5336531 8.16059385 10.5690264 7.50536369 8.80054407 5.56118328 9.56420688 5.42054044 7.63495345 10.9403582 6.91148342 11.8934202 10.54893 9.03423407 11.9757737 9.84830791 13.6638704 12.3898067 12.4195689 13.481857 16.5778469 15.2887038 16.0754372 14.0973762 11.5537495 15.8446567 10.6896047 15.0107274 8.98141157 13.6026444 9.68478522 12.8067714 6.67032674 15.8066004 6.27007364 16.5395978 4.92194082 14.8717392 1.44526537 13.1856797 2.26921736 14.2760754 4.5602058 12.3302403 4.82145887 11.2977565 0.904337544 9.49256426 1.36487981 10.4638272 5.06261555 5.28155222 5.7458928 5.06314217 2.7716271 7.22904188 1.70651844 6.41331342 0"></polygon>
                        <polygon id="Fill-2" points="35.0132997 0.665945946 20.351553 1.90578222 20.4916911 3.76803967 22.2310527 3.62953844 22.6877382 5.37165025 21.0440003 5.31157743 20.0943583 6.05080687 19.5420491 9.15623797 21.3621963 9.5166749 21.7776646 7.21221474 24.4864524 7.33402907 23.7940051 8.51379252 22.0529949 8.5338168 22.0727791 10.4177672 22.6877382 10.4177672 19.1859334 16.4434049 20.7884542 17.3645215 23.8929262 12.058089 23.8533578 12.6204373 29.0384689 12.9191327 27.4359481 13.8602736 24.921705 13.1210442 24.4089643 14.9232288 25.2201168 15.1635201 23.3208328 16.2832107 24.2490419 17.8851526 27.6733586 15.8843939 34.1823629 17.7650069 34.6951037 15.9845153 29.8875412 14.5811474 32.6177618 12.9792055 32.2022935 11.2170695 24.6463748 10.7565112 24.8837853 10.37605 32.8156039 10.2759286 32.7958197 8.41533985 25.9900522 8.49543694 26.6231469 7.41412616 33.8460314 7.71449027 33.7866788 10.015613 35.6661785 10.0573303 35.7255312 6.83175354 34.8352418 5.85223282 32.8156039 5.77213572 33.6267564 4.4288407 32.0456685 3.42762702 30.6591253 5.69036994 28.3443729 5.61194154 27.5942217 3.40760275 25.8119943 4.03002392 26.3263837 5.53184444 24.6463748 5.45007866 24.1122011 3.46767557 35.1699246 2.54822767"></polygon>
                        <path d="M44.3821278,3.18274518 L40.5945175,2.99051063 L40.5191734,4.80323475 L43.8358831,4.9541627 L40.3496492,16.1069439 L42.0448913,16.6423409 L45.6614076,5.04948562 L51.1065879,5.27826061 L50.1443811,13.5332251 L47.5089076,12.7325126 L47.0176013,14.4499138 L50.6341177,15.5556597 L51.7642791,14.7914876 L52.2932574,10.3113106 L53.5552709,11.8174127 L54.9114645,10.6369972 L52.5946337,7.87104393 L52.9901902,4.53474187 L52.1425692,3.54497226 L46.2264883,3.25900351 L46.6612865,1.86728894 L44.9660445,1.33189189 L44.3821278,3.18274518 Z M38.3718668,11.0945472 L39.7107941,12.2384222 L42.3839397,9.05304809 L41.027746,7.87104393 L38.3718668,11.0945472 Z" id="Fill-3"></path>
                        <path d="M68.7845612,2.19376511 L72.4686451,9.25883592 L74.0973979,8.37570207 L70.413314,1.33189189 L68.7845612,2.19376511 Z M57.5578002,7.23744066 L58.973264,8.43457766 L63.3941647,3.13577455 L61.9980908,1.93863756 L57.5578002,7.23744066 Z M59.5161816,15.6959004 L60.4856774,17.0107886 L70.2388048,15.6762752 L71.0337913,17.2659162 L72.6819341,16.4416579 L69.967346,10.8877272 L68.3192032,11.7316107 L69.3662586,13.8903823 L61.8817513,14.950143 L65.3719361,7.02156349 L63.6656235,6.25618082 L59.5161816,15.6959004 Z" id="Fill-4"></path>
                    </g>
                    <g>
                        <path d="M10.5342311,7.76551896 C9.73853417,6.79009625 8.6910623,6.30578657 7.78729436,6.61697883 C6.45875785,7.07443063 5.94383979,9.07764877 6.63719267,11.0912918 C7.33054556,13.1049348 8.96961077,14.366477 10.2981473,13.9090252 C11.0269255,13.6580867 11.5108738,12.942004 11.6848471,12.0142144 C12.423438,12.9108967 13.3684721,13.3573144 14.1776026,13.0787085 C15.3966421,12.6589595 15.8455744,10.7524609 15.180321,8.82042455 C14.5150675,6.88838826 12.9875462,5.66243716 11.7685067,6.08218613 C11.1274006,6.30293667 10.6992924,6.93489574 10.5342311,7.76551896 Z M10.1263539,5.74683896 C10.2541628,3.83165287 11.5638426,-9.75013099e-10 17.2344098,0 C20.6062168,-1.0322518e-09 24.4250406,3.28421053 24.4250406,7.74736842 C24.7516307,16.1078354 17.3684112,23.4722643 13.5692528,23.577799 C13.5551861,23.5789474 13.5408244,23.5788593 13.5263831,23.5786835 C13.5132875,23.5788593 13.5002356,23.5789474 13.4872278,23.5789474 C9.66095998,23.4902966 0.408826257,17.3757691 0.0822391964,9.68421053 C-0.328956796,5.81052632 2.3026975,2.86315789 5.59226544,2.86315789 C7.79724838,2.86315789 9.03812327,4.12788966 10.1263539,5.74683896 Z M14.8496604,19.6603511 C16.1741266,19.059985 16.7666463,17.4748772 16.1743118,16.1203866 C16.1020554,15.955158 15.9119176,15.8808496 15.7496271,15.9544141 C15.5873367,16.0279786 15.5143496,16.2215587 15.586606,16.3867872 C16.0347633,17.4115879 15.5871238,18.6091122 14.5879969,19.0620055 C13.58887,19.5148988 12.4152315,19.052282 11.9670742,18.0274813 C11.8948179,17.8622527 11.7046801,17.7879443 11.5423896,17.8615088 C11.3800991,17.9350733 11.307112,18.1286533 11.3793684,18.2938819 C11.971703,19.6483725 13.5251942,20.2607171 14.8496604,19.6603511 Z" id="Combined-Shape"></path>
                        <path d="M9.44688882,10.3029997 C8.90748327,10.5431586 8.209515,10.1523182 7.88793306,9.43003331 C7.56635112,8.70774845 7.74293204,7.92753368 8.28233759,7.68737485 C8.82174314,7.44721603 9.51971141,7.83805641 9.84129336,8.56034128 C10.1628753,9.28262615 9.98629438,10.0628409 9.44688882,10.3029997 Z M13.3121309,9.545105 C12.7727254,9.78526383 12.0747571,9.39442345 11.7531752,8.67213858 C11.4315932,7.94985371 11.6081742,7.16963894 12.1475797,6.92948011 C12.6869853,6.68932129 13.3849535,7.08016167 13.7065355,7.80244654 C14.0281174,8.52473141 13.8515365,9.30494618 13.3121309,9.545105 Z" id="Combined-Shape"></path>
                    </g>
                </g>
            </g>
        </g>
    </g>
</svg>